# xmcd CD database file
#
# Track frame offsets:
#	150
#	10107
#	19982
#	36290
#	50040
#	64347
#	73397
#	84697
#	97042
#	111527
#	122057
#	132262
#	145820
#	161087
#	172990
#	183925
#	200135
#	214500
#	228145
#	242302
#	253922
#	267667
#	278560
#	289757
#	306172
#
# Disc length: 4273 seconds
#
# Revision: 0
# Processed by: cddbd v1.5.2PL0 Copyright (c) Steve Scherf et al.
# Submitted via: CDex 1.70beta3
#
DISCID=8010af19
DTITLE=CAROL - THE★BEST
DYEAR=1900
DGENRE=ロック
TTITLE0=ファンキー・モンキー・ベイビー
TTITLE1=ルイジアンナ
TTITLE2=二人だけ
TTITLE3=やりきれない気持ち
TTITLE4=涙のテディ・ボーイ
TTITLE5=Good Old Rock'n'roll
TTITLE6=憎いあの娘
TTITLE7=ハニー・エンジェル
TTITLE8=カモン・ベイビー
TTITLE9=ヘイ・タクシー
TTITLE10=愛の叫び
TTITLE11=夏の終り
TTITLE12=ミスター・ギブソン
TTITLE13=0時5分の最終列車
TTITLE14=彼女は彼のもの
TTITLE15=Carol（子供達に夢を）
TTITLE16=レディ・セブンティーン
TTITLE17=ズッコケ娘
TTITLE18=番格ロックのテーマ
TTITLE19=恋の救急車
TTITLE20=コーヒー・ショップの女の娘
TTITLE21=ラスト・チャンス
TTITLE22=ホープ
TTITLE23=甘い日々
TTITLE24=緊急電話
EXTD=
EXTT0=
EXTT1=
EXTT2=
EXTT3=
EXTT4=
EXTT5=
EXTT6=
EXTT7=
EXTT8=
EXTT9=
EXTT10=
EXTT11=
EXTT12=
EXTT13=
EXTT14=
EXTT15=
EXTT16=
EXTT17=
EXTT18=
EXTT19=
EXTT20=
EXTT21=
EXTT22=
EXTT23=
EXTT24=
PLAYORDER=
